<svg width="20" height="16" viewBox="0 0 20 16" fill="none" xmlns="http://www.w3.org/2000/svg">
<path d="M16.875 0C18.6009 0 20 1.37759 20 3.07692V12.9231C20 14.6224 18.6009 16 16.875 16H3.125C1.39911 16 0 14.6224 0 12.9231V3.07692C0 1.37759 1.39911 0 3.125 0H16.875ZM18.75 4.87508L10.3169 9.76119C10.1539 9.85559 9.95826 9.87133 9.78439 9.80839L9.68311 9.76119L1.25 4.87754V12.9231C1.25 13.9427 2.08947 14.7692 3.125 14.7692H16.875C17.9105 14.7692 18.75 13.9427 18.75 12.9231V4.87508ZM16.875 1.23077H3.125C2.08947 1.23077 1.25 2.05732 1.25 3.07692V3.44862L10 8.51681L18.75 3.44738V3.07692C18.75 2.05732 17.9105 1.23077 16.875 1.23077Z" fill="#FFAD64"/>
<path d="M16.875 0C18.6009 0 20 1.37759 20 3.07692V12.9231C20 14.6224 18.6009 16 16.875 16H3.125C1.39911 16 0 14.6224 0 12.9231V3.07692C0 1.37759 1.39911 0 3.125 0H16.875ZM18.75 4.87508L10.3169 9.76119C10.1539 9.85559 9.95826 9.87133 9.78439 9.80839L9.68311 9.76119L1.25 4.87754V12.9231C1.25 13.9427 2.08947 14.7692 3.125 14.7692H16.875C17.9105 14.7692 18.75 13.9427 18.75 12.9231V4.87508ZM16.875 1.23077H3.125C2.08947 1.23077 1.25 2.05732 1.25 3.07692V3.44862L10 8.51681L18.75 3.44738V3.07692C18.75 2.05732 17.9105 1.23077 16.875 1.23077Z" fill="#FFAD64" fill-opacity="0.8"/>
</svg>
