<svg width="141" height="62" viewBox="0 0 141 62" fill="none" xmlns="http://www.w3.org/2000/svg">
<path d="M110.736 5.10055C111.946 3.28687 113.295 1.56399 114.814 0C118.978 4.82588 123.131 9.66085 127.294 14.489C130.442 18.1652 133.635 21.8027 136.78 25.4823C138.164 27.0735 139.522 28.6874 140.917 30.2685C136.109 31.0459 131.442 32.5577 126.956 34.4429C121.704 36.7321 116.649 39.5741 112.237 43.2593C109.756 45.334 107.401 47.5608 105.194 49.9284C102.905 52.4117 100.719 55.0005 98.7737 57.7665C98.4594 58.1977 98.1982 58.6642 97.8613 59.0785C97.9099 54.4966 98.2197 49.9193 98.6787 45.3601C99.7652 35.3713 101.601 25.3813 105.219 15.9792C106.689 12.1805 108.486 8.49751 110.736 5.10055Z" fill="#FFAD64"/>
<path d="M74.5991 44.9479C78.8477 39.9893 83.1189 35.0488 87.3765 30.098C89.0677 31.8674 90.3509 33.9898 91.3616 36.2132C93.3084 40.5908 94.3541 45.3134 95.0132 50.0451C95.4055 53.0346 95.6543 56.0468 95.6746 59.0635C93.4237 55.5111 90.4662 52.4035 86.9842 50.0519C83.2624 47.5277 79.0331 45.7175 74.5991 44.9479Z" fill="#FFAD64"/>
<path d="M60.6736 22.6467C61.3413 22.6493 62.0091 22.6442 62.6768 22.6506C62.6704 24.9386 62.6806 27.2279 62.6717 29.516C63.3547 28.5762 64.3696 27.86 65.5155 27.6365C67.146 27.3045 68.9176 27.7182 70.2162 28.7678C71.5465 29.8237 72.3897 31.4976 72.377 33.2085C72.4177 34.6922 71.8416 36.172 70.8254 37.2471C69.3526 38.838 66.9298 39.4853 64.8796 38.7601C63.8011 38.3707 62.9082 37.5446 62.3563 36.5448C62.3601 37.3288 62.3563 38.1128 62.3563 38.8967C61.7941 38.8942 61.2332 38.8954 60.6724 38.8942C60.6736 33.4792 60.6711 28.063 60.6736 22.6467ZM65.8589 29.4764C64.0249 29.7701 62.575 31.564 62.6958 33.4307C62.7226 34.8492 63.623 36.1924 64.8986 36.7887C65.953 37.3045 67.2503 37.2816 68.2881 36.7338C69.8295 35.9652 70.6664 34.0895 70.2683 32.4169C69.8804 30.4634 67.8073 29.0717 65.8589 29.4764Z" fill="#313033"/>
<path d="M2.67593 23.8525C3.99609 23.1196 5.54899 22.9128 7.03958 23.0073C8.56068 23.0775 10.0436 23.481 11.4694 24.0019C11.257 24.5854 11.0255 25.1638 10.8055 25.7447C9.1966 25.1638 7.48472 24.7731 5.76647 24.9084C4.86983 24.9787 3.94649 25.2289 3.26224 25.8431C2.50169 26.5006 2.33508 27.7289 2.86797 28.5767C3.2101 29.1168 3.8193 29.3824 4.38654 29.6135C6.14166 30.2251 8.01634 30.4945 9.68371 31.3487C10.5689 31.7854 11.4465 32.4263 11.767 33.4082C12.1956 34.7642 11.9908 36.387 11.0064 37.4557C10.1123 38.4427 8.81251 38.9547 7.52033 39.1385C4.92961 39.4705 2.22316 38.887 0 37.5119C0.237832 36.9552 0.475664 36.3985 0.710953 35.8405C2.25241 36.719 3.99482 37.2756 5.76902 37.3612C6.97726 37.3855 8.28851 37.2412 9.26019 36.4508C10.1734 35.7154 10.2484 34.113 9.29453 33.3788C8.31395 32.6127 7.0383 32.4404 5.88094 32.079C4.38908 31.5977 2.77004 31.2197 1.58851 30.1178C0.618109 29.2215 0.409529 27.7723 0.643546 26.5249C0.861028 25.377 1.66991 24.4092 2.67593 23.8525Z" fill="#313033"/>
<path d="M41.5312 24.0521C42.2727 24.0508 43.0155 24.0508 43.7569 24.0521C43.7569 24.6688 43.7569 25.2868 43.7569 25.9035C43.0155 25.9035 42.2727 25.9035 41.5312 25.9035C41.53 25.2868 41.53 24.6688 41.5312 24.0521Z" fill="#313033"/>
<path d="M15.1621 30.015C16.2711 28.3552 18.2971 27.3822 20.2812 27.538C21.876 27.5993 23.3488 28.5748 24.1412 29.9473C24.1373 29.1953 24.1412 28.4433 24.1399 27.6912C24.7122 27.6912 25.2845 27.6912 25.8569 27.6912C25.8569 31.4259 25.8569 35.1606 25.8569 38.8953C25.2845 38.8953 24.7122 38.8953 24.1399 38.8953C24.1437 38.1355 24.131 37.3758 24.1488 36.6174C23.5243 37.6529 22.5565 38.5045 21.3851 38.8442C19.8144 39.2974 18.0504 39.0012 16.6997 38.0806C15.2447 37.1281 14.2781 35.4657 14.17 33.7242C14.0683 32.4231 14.4066 31.0824 15.1621 30.015ZM19.3158 29.4775C17.9664 29.7009 16.8078 30.7236 16.3588 32.0107C15.7763 33.6284 16.4313 35.5666 17.8621 36.5063C19.2637 37.4895 21.3126 37.3414 22.5616 36.1705C23.7049 35.135 24.1246 33.3947 23.5905 31.9468C23.0105 30.227 21.0926 29.1098 19.3158 29.4775Z" fill="#313033"/>
<path d="M32.976 27.6783C34.2427 27.354 35.6544 27.5391 36.7571 28.2605C38.2045 29.1721 39.0973 30.8741 39.0846 32.5825C39.0808 34.6867 39.0846 36.7909 39.0833 38.8951C38.4258 38.8951 37.7695 38.8951 37.112 38.8951C37.1132 36.8739 37.1094 34.854 37.1145 32.8328C37.1603 31.5636 36.3756 30.3187 35.2297 29.7914C34.2147 29.2794 32.9276 29.4199 32.0259 30.1029C31.1636 30.7171 30.6511 31.7705 30.66 32.8277C30.6536 34.8501 30.66 36.8726 30.6574 38.8951C29.9897 38.8951 29.322 38.8951 28.6543 38.8951C28.6543 35.1604 28.6543 31.4257 28.6543 27.691C29.2164 27.691 29.7773 27.691 30.3395 27.691C30.3382 28.369 30.342 29.0457 30.3369 29.7237C30.9487 28.7674 31.8657 27.9732 32.976 27.6783Z" fill="#313033"/>
<path d="M47.0112 29.9369C48.4458 27.843 51.385 26.9224 53.7264 27.9311C54.6523 28.3473 55.4179 29.0738 55.9369 29.9446C55.933 29.1926 55.9368 28.4418 55.9356 27.691C56.5079 27.691 57.0802 27.691 57.6525 27.691C57.6525 31.4257 57.6525 35.1604 57.6525 38.8951C57.0802 38.8951 56.5079 38.8951 55.9356 38.8951C55.9394 38.1354 55.9267 37.3756 55.9432 36.6159C55.3251 37.6565 54.3522 38.5031 53.1821 38.844C51.6063 39.2985 49.8372 38.9998 48.4839 38.0741C47.0391 37.119 46.0751 35.4643 45.967 33.7303C45.8589 32.3948 46.2201 31.0197 47.0112 29.9369ZM51.1166 29.4773C49.7087 29.7084 48.5068 30.8103 48.1011 32.1765C47.7094 33.4954 48.0706 35.0033 49.0397 35.9814C50.1119 37.142 51.9382 37.4931 53.3639 36.819C55.0733 36.0899 56.0004 34.0036 55.4764 32.2275C55.0071 30.3659 52.9938 29.0853 51.1166 29.4773Z" fill="#313033"/>
<path d="M41.6265 27.6913C42.2942 27.6913 42.9619 27.6913 43.6297 27.6913C43.6309 31.3213 43.6297 34.95 43.6309 38.5787C43.6297 39.2222 43.6538 39.8759 43.4961 40.5067C43.1387 41.8869 41.9432 43.0067 40.5429 43.262C39.9019 43.3642 39.2508 43.3259 38.6059 43.3322C38.6047 42.6926 38.6047 42.0542 38.6059 41.417C39.2571 41.3723 39.9617 41.546 40.5671 41.2319C41.2056 40.9012 41.6354 40.2104 41.6214 39.4852C41.6329 35.5539 41.6227 31.6226 41.6265 27.6913Z" fill="#313033"/>
<path d="M17.218 45.293C17.7641 45.293 18.3101 45.293 18.8562 45.293C18.8584 48.4822 18.8562 51.6726 18.8573 54.863C18.8415 55.4827 19.1761 56.1013 19.7222 56.3986C20.1597 56.6483 20.682 56.6188 21.1681 56.6063C24.5982 56.6211 28.0282 56.6052 31.4583 56.6154C32.6578 56.6336 33.9217 56.3396 34.8295 55.5111C35.6481 54.7654 36.4722 54.0231 37.2783 53.2616C36.202 52.7406 35.1212 52.2299 34.0449 51.7089C33.5837 51.4831 33.0422 51.2867 32.5379 51.491C31.9489 51.6806 31.5691 52.1924 31.1802 52.6407C30.8975 52.9608 30.6206 53.2843 30.3323 53.5987C29.9479 53.2729 29.5725 52.937 29.1836 52.6181C29.6245 52.0608 30.0802 51.516 30.5278 50.9655C31.1711 50.1325 32.2519 49.6864 33.292 49.7602C33.8335 49.7784 34.3039 50.0746 34.79 50.28C36.1229 50.8986 37.4467 51.5387 38.7853 52.1459C39.4388 52.2957 40.1227 52.18 40.7897 52.2163C40.7886 52.7554 40.7886 53.2945 40.7897 53.8336C40.1634 53.8336 39.5382 53.8325 38.9131 53.8347C38.627 54.1105 38.3274 54.3727 38.0403 54.6462C37.8967 55.6393 38.6983 56.6449 39.7225 56.6063C42.507 56.6177 45.2915 56.6097 48.0772 56.612C48.7058 56.5666 49.3456 56.6846 49.9686 56.545C50.6469 56.3657 51.1715 55.7142 51.1805 55.006C51.2043 53.9823 51.1839 52.9574 51.1896 51.9348C51.7356 51.9303 52.2817 51.9325 52.8288 51.9314C52.8322 52.9461 52.8255 53.9596 52.8311 54.9742C52.8164 55.6405 53.2743 56.259 53.8848 56.4951C54.3822 56.6688 54.9192 56.6052 55.4381 56.6018C56.8637 56.6347 58.2905 56.6007 59.7161 56.6097C60.2316 56.6131 60.7517 56.3986 61.0716 55.9821C61.3983 55.6132 61.456 55.0991 61.4503 54.6258C61.4492 53.7281 61.4492 52.8303 61.4503 51.9325C61.9964 51.9314 62.5424 51.9314 63.0896 51.9325C63.0986 52.979 63.0715 54.0265 63.1032 55.0719C63.1145 55.7801 63.6492 56.4247 64.3309 56.5882C65.3428 56.8867 66.4213 55.973 66.3625 54.9311C66.3761 53.9312 66.3625 52.9313 66.3682 51.9325C66.9142 51.9314 67.4603 51.9314 68.0074 51.9325C68.0074 52.9472 68.0063 53.9619 68.0074 54.9765C67.9916 55.6064 68.4099 56.1943 68.9729 56.4497C69.5766 56.7073 70.2516 56.5859 70.8903 56.6131C70.8903 54.8449 70.8892 53.0766 70.8903 51.3083C71.4364 51.3083 71.9824 51.3083 72.5296 51.3083C72.5307 53.6531 72.5273 55.998 72.5307 58.3428C71.5042 58.3451 70.4765 58.3508 69.4511 58.3417C68.5354 58.3133 67.7056 57.7742 67.2025 57.024C66.6757 57.8571 65.7272 58.4211 64.7334 58.3848C63.7374 58.42 62.7742 57.8639 62.2575 57.0183C61.7646 57.7504 60.9631 58.294 60.0699 58.336C58.5234 58.3746 56.9757 58.3224 55.4291 58.3553C54.7214 58.3281 53.982 58.4223 53.315 58.1306C52.7644 57.9047 52.319 57.4791 52.0013 56.982C51.5163 57.848 50.5316 58.3735 49.5491 58.3462C46.5702 58.3474 43.5912 58.3496 40.6134 58.3451C39.8785 58.336 39.0985 58.4245 38.4235 58.0693C37.5428 57.6584 36.9889 56.7709 36.7662 55.8493C36.1602 56.4259 35.5848 57.0535 34.8612 57.4837C33.9409 58.0364 32.8715 58.319 31.8031 58.3451C28.4104 58.353 25.0176 58.3394 21.626 58.3519C20.7928 58.3326 19.9076 58.4416 19.1377 58.0489C18.0037 57.5393 17.218 56.3373 17.2192 55.0889C17.2158 51.8236 17.218 48.5583 17.218 45.293Z" fill="#313033"/>
<path d="M51.1053 48.3007C51.6989 48.3007 52.2924 48.2973 52.8871 48.303C52.8837 48.8886 52.8848 49.4743 52.8859 50.0599C52.2924 50.061 51.6989 50.0599 51.1053 50.0599C51.1042 49.4731 51.1042 48.8875 51.1053 48.3007Z" fill="#313033"/>
<path d="M13.2622 51.932C13.8071 51.9331 14.3531 51.932 14.9003 51.932C14.8958 52.8377 14.9093 53.7434 14.8946 54.6491C14.8596 55.8442 14.2559 57.0201 13.2701 57.6999C12.6833 58.1255 11.9609 58.3355 11.2419 58.3457C9.3912 58.348 7.54051 58.3457 5.68982 58.3457C4.91427 58.3253 4.12628 58.4149 3.36429 58.2299C2.002 57.9156 0.82285 56.8918 0.3175 55.5832C-0.14376 54.4233 0.0461696 53.1498 0.00547025 51.9331C0.55152 51.932 1.09757 51.932 1.64475 51.9331C1.69449 52.9376 1.49552 53.9954 1.88442 54.9533C2.28576 55.9237 3.29081 56.5979 4.33882 56.6035C6.4077 56.6308 8.47772 56.6058 10.5477 56.616C10.9966 56.6138 11.4623 56.6285 11.8919 56.4696C12.6856 56.1813 13.252 55.3676 13.2542 54.5197C13.2712 53.6572 13.2542 52.7946 13.2622 51.932Z" fill="#313033"/>
<path d="M32.1501 60.126C32.7402 60.1385 33.3304 60.1305 33.9217 60.1328C33.9217 60.7275 33.9205 61.3234 33.9228 61.9192C33.3281 61.9204 32.7346 61.9204 32.1411 61.9204C32.1433 61.3222 32.1309 60.7241 32.1501 60.126Z" fill="#313033"/>
<path d="M6.92956 60.1329C7.51292 60.1329 8.0974 60.1329 8.68189 60.1329C8.68189 60.7288 8.68189 61.3247 8.68076 61.9205C8.09627 61.9205 7.51292 61.9205 6.92956 61.9205C6.92843 61.3247 6.92843 60.7288 6.92956 60.1329Z" fill="#313033"/>
</svg>
