<svg width="17" height="22" viewBox="0 0 17 22" fill="none" xmlns="http://www.w3.org/2000/svg">
<path d="M12.4887 0.117485L13.4866 0.414594C15.3016 0.954983 16.6347 2.48594 16.9041 4.33937C17.3176 7.1845 16.3927 10.5102 14.1642 14.3225C11.9405 18.1269 9.49278 20.5786 6.79822 21.651C5.03044 22.3547 3.00966 21.9758 1.62575 20.6813L0.869965 19.9744C-0.143003 19.0268 -0.289762 17.4852 0.526598 16.3678L2.41552 13.7819C2.9385 13.0659 3.86501 12.758 4.7198 13.0161L7.57532 13.8784L7.64911 13.8927C7.96393 13.9381 8.68979 13.2656 9.59499 11.7169C10.542 10.0966 10.7383 9.14928 10.4768 8.90503L9.0241 7.56698C7.93525 6.56424 7.61361 4.98802 8.22403 3.64686L9.14496 1.62326C9.71849 0.363144 11.1495 -0.281247 12.4887 0.117485ZM10.415 2.18717L9.49404 4.21078C9.12798 5.01489 9.32082 5.95992 9.97372 6.56121L11.43 7.90256C12.3617 8.77272 12.053 10.2622 10.8008 12.4045C9.62256 14.4203 8.54763 15.4165 7.39264 15.2437L7.21956 15.2071L4.3128 14.3313C4.02777 14.2454 3.71894 14.348 3.54461 14.5866L1.65569 17.1725C1.24758 17.7311 1.32096 18.502 1.82737 18.9758L2.58317 19.6827C3.57163 20.6073 5.01512 20.878 6.27775 20.3754C8.64217 19.4343 10.8767 17.1963 12.9583 13.6349C15.0443 10.0662 15.8885 7.03074 15.5258 4.53481C15.3334 3.21093 14.3812 2.11739 13.0847 1.73139L12.0868 1.43428C11.4172 1.23492 10.7018 1.55711 10.415 2.18717Z" fill="#FFAD64"/>
<path d="M12.4887 0.117485L13.4866 0.414594C15.3016 0.954983 16.6347 2.48594 16.9041 4.33937C17.3176 7.1845 16.3927 10.5102 14.1642 14.3225C11.9405 18.1269 9.49278 20.5786 6.79822 21.651C5.03044 22.3547 3.00966 21.9758 1.62575 20.6813L0.869965 19.9744C-0.143003 19.0268 -0.289762 17.4852 0.526598 16.3678L2.41552 13.7819C2.9385 13.0659 3.86501 12.758 4.7198 13.0161L7.57532 13.8784L7.64911 13.8927C7.96393 13.9381 8.68979 13.2656 9.59499 11.7169C10.542 10.0966 10.7383 9.14928 10.4768 8.90503L9.0241 7.56698C7.93525 6.56424 7.61361 4.98802 8.22403 3.64686L9.14496 1.62326C9.71849 0.363144 11.1495 -0.281247 12.4887 0.117485ZM10.415 2.18717L9.49404 4.21078C9.12798 5.01489 9.32082 5.95992 9.97372 6.56121L11.43 7.90256C12.3617 8.77272 12.053 10.2622 10.8008 12.4045C9.62256 14.4203 8.54763 15.4165 7.39264 15.2437L7.21956 15.2071L4.3128 14.3313C4.02777 14.2454 3.71894 14.348 3.54461 14.5866L1.65569 17.1725C1.24758 17.7311 1.32096 18.502 1.82737 18.9758L2.58317 19.6827C3.57163 20.6073 5.01512 20.878 6.27775 20.3754C8.64217 19.4343 10.8767 17.1963 12.9583 13.6349C15.0443 10.0662 15.8885 7.03074 15.5258 4.53481C15.3334 3.21093 14.3812 2.11739 13.0847 1.73139L12.0868 1.43428C11.4172 1.23492 10.7018 1.55711 10.415 2.18717Z" fill="#FFAD64" fill-opacity="0.8"/>
</svg>
