<svg width="33" height="29" viewBox="0 0 33 29" fill="none" xmlns="http://www.w3.org/2000/svg">
<path d="M31.3835 18.8462C29.8205 23.4909 25.6576 26.8641 21.1101 28.3867C19.6685 27.1759 18.4455 25.1877 18.6885 23.2804C19.9722 22.187 21.6932 21.7173 22.8756 20.4741C24.8477 18.6478 25.5159 15.882 25.5685 13.2863C23.7098 13.2053 21.8066 13.505 19.9803 13.096C18.895 12.6344 19.0651 11.2616 19.0206 10.2978C19.142 7.31742 18.8991 4.32488 19.1258 1.35258C19.1987 0.33617 20.3042 -0.0282822 21.1749 0.0162621C24.1593 0.00411224 27.1438 0.0486565 30.1282 6.29425e-05C30.9017 0.0243607 31.914 -0.00803566 32.3271 0.793755C32.6956 2.3042 32.4728 3.88349 32.5093 5.42228C32.4485 9.90502 32.8008 14.5214 31.3835 18.8462Z" fill="#FFAD64"/>
<path d="M11.8086 21.1265C9.90135 24.3215 6.79947 26.7512 3.34529 28.0632C1.7903 28.6545 1.10594 26.7755 0.57141 25.7024C0.308195 24.8885 -0.461199 23.7627 0.389186 23.0662C1.63237 22.1267 3.19951 21.657 4.29691 20.5151C6.27304 18.6726 6.96145 15.8946 6.97764 13.2787C5.11895 13.2058 3.21975 13.5055 1.3975 13.0924C0.198861 12.5336 0.494473 10.9827 0.421582 9.90955C0.563313 7.06278 0.263651 4.19982 0.555211 1.36925C0.599755 0.336643 1.70121 -0.0318565 2.57589 0.016737C5.68992 0.016737 8.808 0.0288849 11.922 0.0126877C12.7846 -0.0480537 13.8617 0.352842 13.9103 1.35306C14.1371 3.92041 13.9144 6.50396 13.9994 9.07536C13.8941 13.1451 13.8901 17.4861 11.8086 21.1265Z" fill="#FFAD64"/>
</svg>
